<svg xmlns="http://www.w3.org/2000/svg" id="femenine_1_" width="22.172" height="33.389" data-name="femenine (1)" viewBox="0 0 22.172 33.389">
    <defs>
        <style>
            .cls-1{fill:#959595}
        </style>
    </defs>
    <g id="Grupo_162" data-name="Grupo 162">
        <path id="Trazado_348" d="M104.928 18.922a11.1 11.1 0 1 0-9.147 3.166V25.8h-2.61a1.3 1.3 0 1 0 0 2.609h2.61v3.675a1.3 1.3 0 0 0 2.61 0v-3.675H101a1.3 1.3 0 1 0 0-2.609h-2.61v-3.712a11.039 11.039 0 0 0 6.538-3.166zm-13.84-1.845a8.48 8.48 0 1 1 11.994 0 8.487 8.487 0 0 1-11.994.001z" class="cls-1" data-name="Trazado 348" transform="translate(-86)"/>
    </g>
</svg>
