<?xml version="1.0" encoding="utf-8"?>
<!-- Generator: Adobe Illustrator 22.0.0, SVG Export Plug-In . SVG Version: 6.00 Build 0)  -->
<svg version="1.1" id="Capa_1" xmlns="http://www.w3.org/2000/svg" xmlns:xlink="http://www.w3.org/1999/xlink" x="0px" y="0px"
	 viewBox="0 0 316.8 316.8" style="enable-background:new 0 0 316.8 316.8;" xml:space="preserve">
<style type="text/css">
	.st0{fill:none;stroke:#000000;stroke-width:6.9664;stroke-miterlimit:10;}
</style>
<g>
	<path class="st0" d="M201.5,187.9l-0.7-0.3c-1.7-0.8-3.4-1.5-5.1-2.2c-1.9-0.8-3.8-1.5-5.7-2.1c-1.5-0.5-3.1-1-4.6-1.4
		c-2.4-0.7-4.8-1.3-7.3-1.9c-0.8-0.2-1.7-0.3-2.5-0.5l-0.6-0.1c-1.5-0.3-2.9-0.5-4.4-0.8l-0.4-0.1c0,0,0,0,0,0l-0.4-0.1
		c-1.2-0.2-2.5-0.4-3.7-0.5l-4.3-0.4c-5.3-0.4-10.8-0.3-16.1,0l-1.5,0.1l-0.7,0.1l-1.8,0.2c-1.7,0.2-3.3,0.4-4.9,0.7l-0.5,0.1
		c-1.1,0.2-2.2,0.4-3.3,0.6c-1.2,0.2-2.4,0.5-3.6,0.7c-2.3,0.5-4.7,1.1-6.9,1.8c-1.8,0.5-3.6,1.1-5.2,1.7l-1.2,0.4
		c-3.5,1.2-7,2.7-10.4,4.3l-0.9,0.4l0,0c-39.7,19-65.2,59.4-65.2,103.3c0,1,0.1,2,0.1,3l0.3,7h228.3l0.3-6.9c0.1-1,0.1-2,0.1-3.1
		C268.3,247.4,242.1,206.6,201.5,187.9z"/>
	<path class="st0" d="M126,156.2c0.8,0.4,1.7,0.7,2.6,1l1.8,0.7c0.7,0.3,1.4,0.5,2.1,0.8c6.7,2.1,13.6,3.2,20.7,3.2l0.6,0
		c2.4,0,4.9-0.1,7.2-0.4c0.8-0.1,1.6-0.2,2.4-0.3l1.8-0.3c1-0.1,2-0.3,3-0.5c0.7-0.1,1.4-0.3,2.1-0.5l1.9-0.5
		c0.9-0.2,1.9-0.5,2.8-0.7c0.6-0.2,1.2-0.4,1.7-0.6l1.5-0.6c1.1-0.4,2.2-0.8,3.3-1.2c0.4-0.2,0.9-0.4,1.3-0.6l0.5-0.2
		c1.5-0.7,3-1.4,4.5-2.2l1-0.6c1.7-1,3.4-1.9,5-3.1c0.9-0.6,1.7-1.3,2.5-1.9l2.9-2.2c16.5-13.6,25.9-33.7,25.9-54.4l0-0.6
		c0-39.4-32-71.4-71.4-71.4C116.3,19,85,48.4,82.6,85.9l-0.1,0.9c-0.1,1.2-0.2,2.4-0.2,3.6C82.4,119.2,99.5,145,126,156.2z"/>
</g>
</svg>
